<?xml version="1.0" encoding="UTF-8" standalone="no"?>
<!-- Created with Inkscape (http://www.inkscape.org/) -->

<svg
   xmlns:dc="http://purl.org/dc/elements/1.1/"
   xmlns:cc="http://creativecommons.org/ns#"
   xmlns:rdf="http://www.w3.org/1999/02/22-rdf-syntax-ns#"
   xmlns:svg="http://www.w3.org/2000/svg"
   xmlns="http://www.w3.org/2000/svg"
   xmlns:sodipodi="http://sodipodi.sourceforge.net/DTD/sodipodi-0.dtd"
   xmlns:inkscape="http://www.inkscape.org/namespaces/inkscape"
   width="210mm"
   height="297mm"
   viewBox="0 0 210 297"
   version="1.1"
   id="svg3631"
   inkscape:version="0.92.4 (5da689c313, 2019-01-14)"
   sodipodi:docname="dotted arrow.svg">
  <defs
     id="defs3625">
    <clipPath
       clipPathUnits="userSpaceOnUse"
       id="clipPath18">
      <path
         d="M 0,600.949 H 847.559 V 0 H 0 Z"
         id="path16"
         inkscape:connector-curvature="0" />
    </clipPath>
    <linearGradient
       id="a"
       x1="104.73"
       x2="494.51999"
       y1="335.72"
       y2="895.84003"
       gradientUnits="userSpaceOnUse">
      <stop
         stop-color="#e00"
         offset="0"
         id="stop2" />
      <stop
         stop-color="#9a0000"
         offset="1"
         id="stop4" />
    </linearGradient>
    <clipPath
       clipPathUnits="userSpaceOnUse"
       id="clipPath320">
      <path
         d="M 875.158,1588.93 H 1748.09 V 734.859 H 875.158 Z"
         id="path318"
         inkscape:connector-curvature="0" />
    </clipPath>
    <clipPath
       clipPathUnits="userSpaceOnUse"
       id="clipPath296">
      <path
         d="M 937.531,1581.32 H 1799.45 V 699.325 H 937.531 Z"
         id="path294"
         inkscape:connector-curvature="0" />
    </clipPath>
    <clipPath
       clipPathUnits="userSpaceOnUse"
       id="clipPath260">
      <path
         d="m 1168.49,1807.23 h 190.99 v -82.16 h -190.99 z"
         id="path258"
         inkscape:connector-curvature="0" />
    </clipPath>
  </defs>
  <sodipodi:namedview
     id="base"
     pagecolor="#ffffff"
     bordercolor="#666666"
     borderopacity="1.0"
     inkscape:pageopacity="0.0"
     inkscape:pageshadow="2"
     inkscape:zoom="0.37007452"
     inkscape:cx="174.76364"
     inkscape:cy="751.81449"
     inkscape:document-units="mm"
     inkscape:current-layer="g11993"
     showgrid="false"
     showguides="true"
     inkscape:guide-bbox="true"
     inkscape:window-width="1920"
     inkscape:window-height="1001"
     inkscape:window-x="-9"
     inkscape:window-y="-9"
     inkscape:window-maximized="1"
     inkscape:snap-global="false">
    <sodipodi:guide
       position="72.922013,252.88982"
       orientation="0,1"
       id="guide4178"
       inkscape:locked="false" />
    <sodipodi:guide
       position="99.099147,43.94019"
       orientation="0,1"
       id="guide4180"
       inkscape:locked="false" />
  </sodipodi:namedview>
  <metadata
     id="metadata3628">
    <rdf:RDF>
      <cc:Work
         rdf:about="">
        <dc:format>image/svg+xml</dc:format>
        <dc:type
           rdf:resource="http://purl.org/dc/dcmitype/StillImage" />
        <dc:title></dc:title>
      </cc:Work>
    </rdf:RDF>
  </metadata>
  <g
     inkscape:label="Layer 1"
     inkscape:groupmode="layer"
     id="layer1">
    <g
       id="g11993"
       transform="translate(0.01320793,-14.655723)">
      <path
         d="m 128.59933,189.37921 c -2.64231,0 -4.7836,2.14062 -4.7836,4.78362 0,2.64302 2.14129,4.78362 4.7836,4.78362 2.64302,0 4.78433,-2.1406 4.78433,-4.78362 0,-2.643 -2.14131,-4.78362 -4.78433,-4.78362 m 0,-12.40326 c -2.64231,0 -4.7836,2.14131 -4.7836,4.78362 0,2.64302 2.14129,4.78431 4.7836,4.78431 2.64302,0 4.78433,-2.14129 4.78433,-4.78431 0,-2.64231 -2.14131,-4.78362 -4.78433,-4.78362 m 0,-12.40326 c -2.64231,0 -4.7836,2.142 -4.7836,4.785 0,2.64233 2.14129,4.78362 4.7836,4.78362 2.64302,0 4.78433,-2.14129 4.78433,-4.78362 0,-2.643 -2.14131,-4.785 -4.78433,-4.785 m 0,-12.40257 c -2.64231,0 -4.7836,2.1413 -4.7836,4.78431 0,2.64231 2.14129,4.78363 4.7836,4.78363 2.64302,0 4.78433,-2.14132 4.78433,-4.78363 0,-2.64301 -2.14131,-4.78431 -4.78433,-4.78431 m 0,-12.40328 c -2.64231,0 -4.7836,2.14201 -4.7836,4.78432 0,2.64232 2.14129,4.78433 4.7836,4.78433 2.64302,0 4.78433,-2.14201 4.78433,-4.78433 0,-2.64231 -2.14131,-4.78432 -4.78433,-4.78432 m 0,-12.40256 c -2.64231,0 -4.7836,2.14131 -4.7836,4.78362 0,2.64302 2.14129,4.78431 4.7836,4.78431 2.64302,0 4.78433,-2.14129 4.78433,-4.78431 0,-2.64231 -2.14131,-4.78362 -4.78433,-4.78362 m 12.40118,55.8147 c -2.6423,0 -4.78362,2.14131 -4.78362,4.78362 0,2.643 2.14132,4.78362 4.78362,4.78362 2.64302,0 4.78432,-2.14062 4.78432,-4.78362 0,-2.64231 -2.1413,-4.78362 -4.78432,-4.78362 m 0,-12.40326 c -2.6423,0 -4.78362,2.14129 -4.78362,4.78362 0,2.64091 2.14132,4.7836 4.78362,4.7836 2.64302,0 4.78432,-2.14269 4.78432,-4.7836 0,-2.64233 -2.1413,-4.78362 -4.78432,-4.78362 m 0,-12.40328 c -2.6423,0 -4.78362,2.14132 -4.78362,4.78362 0,2.64093 2.14132,4.78432 4.78362,4.78432 2.64302,0 4.78432,-2.14339 4.78432,-4.78432 0,-2.6423 -2.1413,-4.78362 -4.78432,-4.78362 m 0,-12.40466 c -2.6423,0 -4.78362,2.1427 -4.78362,4.78572 0,2.64092 2.14132,4.78431 4.78362,4.78431 2.64302,0 4.78432,-2.14339 4.78432,-4.78431 0,-2.64302 -2.1413,-4.78572 -4.78432,-4.78572 m 0,-12.40326 c -2.6423,0 -4.78362,2.14339 -4.78362,4.78432 0,2.6423 2.14132,4.78362 4.78362,4.78362 2.64302,0 4.78432,-2.14132 4.78432,-4.78362 0,-2.64093 -2.1413,-4.78432 -4.78432,-4.78432 m 49.61237,24.80792 c -2.643,0 -4.78432,2.14132 -4.78432,4.78362 0,2.64093 2.14132,4.78432 4.78432,4.78432 2.64232,0 4.78362,-2.14339 4.78362,-4.78432 0,-2.6423 -2.1413,-4.78362 -4.78362,-4.78362 m -12.40117,6.20025 c -2.64302,0 -4.78431,2.142 -4.78431,4.785 0,2.64233 2.14129,4.78362 4.78431,4.78362 2.64231,0 4.78362,-2.14129 4.78362,-4.78362 0,-2.643 -2.14131,-4.785 -4.78362,-4.785 m 0,-12.40257 c -2.64302,0 -4.78431,2.1413 -4.78431,4.78431 0,2.64231 2.14129,4.78363 4.78431,4.78363 2.64231,0 4.78362,-2.14132 4.78362,-4.78363 0,-2.64301 -2.14131,-4.78431 -4.78362,-4.78431 m -12.40535,18.6056 c -2.64233,0 -4.78362,2.14129 -4.78362,4.78362 0,2.64091 2.14129,4.7836 4.78362,4.7836 2.643,0 4.78431,-2.14269 4.78431,-4.7836 0,-2.64233 -2.14131,-4.78362 -4.78431,-4.78362 m 0,-12.40328 c -2.64233,0 -4.78362,2.14132 -4.78362,4.78362 0,2.64093 2.14129,4.78432 4.78362,4.78432 2.643,0 4.78431,-2.14339 4.78431,-4.78432 0,-2.6423 -2.14131,-4.78362 -4.78431,-4.78362 m 0,-12.40466 c -2.64233,0 -4.78362,2.1427 -4.78362,4.78572 0,2.64092 2.14129,4.78431 4.78362,4.78431 2.643,0 4.78431,-2.14339 4.78431,-4.78431 0,-2.64302 -2.14131,-4.78572 -4.78431,-4.78572 m -12.40049,31.00817 c -2.64231,0 -4.78432,2.14131 -4.78432,4.78362 0,2.64302 2.14201,4.78431 4.78432,4.78431 2.64302,0 4.78362,-2.14129 4.78362,-4.78431 0,-2.64231 -2.1406,-4.78362 -4.78362,-4.78362 m 0,-12.40326 c -2.64231,0 -4.78432,2.142 -4.78432,4.785 0,2.64233 2.14201,4.78362 4.78432,4.78362 2.64302,0 4.78362,-2.14129 4.78362,-4.78362 0,-2.643 -2.1406,-4.785 -4.78362,-4.785 m 0,-12.40257 c -2.64231,0 -4.78432,2.1413 -4.78432,4.78431 0,2.64231 2.14201,4.78363 4.78432,4.78363 2.64302,0 4.78362,-2.14132 4.78362,-4.78363 0,-2.64301 -2.1406,-4.78431 -4.78362,-4.78431 m 0,-12.40328 c -2.64231,0 -4.78432,2.14201 -4.78432,4.78432 0,2.64232 2.14201,4.78433 4.78432,4.78433 2.64302,0 4.78362,-2.14201 4.78362,-4.78433 0,-2.64231 -2.1406,-4.78432 -4.78362,-4.78432 m -37.2112,55.81402 c -2.643,0 -4.7836,2.14198 -4.7836,4.785 0,2.64302 2.1406,4.78362 4.7836,4.78362 2.64233,0 4.78362,-2.1406 4.78362,-4.78362 0,-2.64302 -2.14129,-4.785 -4.78362,-4.785 m 0,-12.40188 c -2.643,0 -4.7836,2.14131 -4.7836,4.78362 0,2.643 2.1406,4.78362 4.7836,4.78362 2.64233,0 4.78362,-2.14062 4.78362,-4.78362 0,-2.64231 -2.14129,-4.78362 -4.78362,-4.78362 m -99.224036,-10.0118 c -1.321158,0 -2.393553,1.071 -2.393553,2.39216 0,1.32115 1.072395,2.39215 2.393553,2.39215 1.321156,0 2.390068,-1.071 2.390068,-2.39215 0,-1.32116 -1.068912,-2.39216 -2.390068,-2.39216 m 0,-12.40257 c -1.321158,0 -2.393553,1.071 -2.393553,2.39145 0,1.32186 1.072395,2.39286 2.393553,2.39286 1.321156,0 2.390068,-1.071 2.390068,-2.39286 0,-1.32045 -1.068912,-2.39145 -2.390068,-2.39145 m 0,-12.40537 c -1.321158,0 -2.393553,1.07309 -2.393553,2.39426 0,1.31907 1.072395,2.39214 2.393553,2.39214 1.321156,0 2.390068,-1.07307 2.390068,-2.39214 0,-1.32117 -1.068912,-2.39426 -2.390068,-2.39426 m 12.401177,24.50901 c -1.484212,0 -2.689002,1.20478 -2.689002,2.69109 0,1.48699 1.20479,2.69108 2.689002,2.69108 1.488391,0 2.693181,-1.20409 2.693181,-2.69108 0,-1.48631 -1.20479,-2.69109 -2.693181,-2.69109 m 0,-12.40328 c -1.484212,0 -2.689002,1.2048 -2.689002,2.69109 0,1.48701 1.20479,2.69041 2.689002,2.69041 1.488391,0 2.693181,-1.2034 2.693181,-2.69041 0,-1.48629 -1.20479,-2.69109 -2.693181,-2.69109 m 0,-12.40257 c -1.484212,0 -2.689002,1.20479 -2.689002,2.6911 0,1.48421 1.20479,2.689 2.689002,2.689 1.488391,0 2.693181,-1.20479 2.693181,-2.689 0,-1.48631 -1.20479,-2.6911 -2.693181,-2.6911 m 12.404659,24.50692 c -1.651446,0 -2.987933,1.33856 -2.987933,2.99002 0,1.65144 1.336487,2.98862 2.987933,2.98862 1.652144,0 2.98863,-1.33718 2.98863,-2.98862 0,-1.65146 -1.336486,-2.99002 -2.98863,-2.99002 m 0,-12.40328 c -1.651446,0 -2.987933,1.33928 -2.987933,2.99002 0,1.65006 1.336487,2.98863 2.987933,2.98863 1.652144,0 2.98863,-1.33857 2.98863,-2.98863 0,-1.65074 -1.336486,-2.99002 -2.98863,-2.99002 m 0,-12.40326 c -1.651446,0 -2.987933,1.33928 -2.987933,2.99072 0,1.65005 1.336487,2.98862 2.987933,2.98862 1.652144,0 2.98863,-1.33857 2.98863,-2.98862 0,-1.65144 -1.336486,-2.99072 -2.98863,-2.99072 m 12.401178,24.5069 c -1.814502,0 -3.287563,1.47377 -3.287563,3.28966 0,1.8145 1.473061,3.28825 3.287563,3.28825 1.818682,0 3.291739,-1.47375 3.291739,-3.28825 0,-1.81589 -1.473057,-3.28966 -3.291739,-3.28966 m 0,-12.40326 c -1.814502,0 -3.287563,1.47306 -3.287563,3.28964 0,1.8159 1.473061,3.28827 3.287563,3.28827 1.818682,0 3.291739,-1.47237 3.291739,-3.28827 0,-1.81658 -1.473057,-3.28964 -3.291739,-3.28964 m 0,-12.40257 c -1.814502,0 -3.287563,1.47306 -3.287563,3.28965 0,1.81518 1.473061,3.28826 3.287563,3.28826 1.818682,0 3.291739,-1.47308 3.291739,-3.28826 0,-1.81659 -1.473057,-3.28965 -3.291739,-3.28965 M 66.583,171.97075 c -1.982426,0 -3.587192,1.60686 -3.587192,3.58859 0,1.98034 1.604766,3.58719 3.587192,3.58719 1.981736,0 3.586501,-1.60685 3.586501,-3.58719 0,-1.98173 -1.604765,-3.58859 -3.586501,-3.58859 m 0,-12.40328 c -1.982426,0 -3.587192,1.60686 -3.587192,3.58859 0,1.98034 1.604766,3.58789 3.587192,3.58789 1.981736,0 3.586501,-1.60755 3.586501,-3.58789 0,-1.98173 -1.604765,-3.58859 -3.586501,-3.58859 m 0,-12.40326 c -1.982426,0 -3.587192,1.60755 -3.587192,3.58929 0,1.98033 1.604766,3.58719 3.587192,3.58719 1.981736,0 3.586501,-1.60686 3.586501,-3.58719 0,-1.98174 -1.604765,-3.58929 -3.586501,-3.58929 m 12.404661,24.5069 c -2.148957,0 -3.890309,1.74135 -3.890309,3.88823 0,2.14758 1.741352,3.88612 3.890309,3.88612 2.145502,0 3.886122,-1.73854 3.886122,-3.88612 0,-2.14688 -1.74062,-3.88823 -3.886122,-3.88823 m 0,-12.40257 c -2.148957,0 -3.890309,1.74064 -3.890309,3.88752 0,2.14758 1.741352,3.88682 3.890309,3.88682 2.145502,0 3.886122,-1.73924 3.886122,-3.88682 0,-2.14688 -1.74062,-3.88752 -3.886122,-3.88752 m 0,-12.40326 c -2.148957,0 -3.890309,1.74064 -3.890309,3.88822 0,2.14548 1.741352,3.88681 3.890309,3.88681 2.145502,0 3.886122,-1.74133 3.886122,-3.88681 0,-2.14758 -1.74062,-3.88822 -3.886122,-3.88822 m 12.401182,24.5069 c -2.31272,0 -4.18576,1.87513 -4.18576,4.18716 0,2.31201 1.87304,4.18574 4.18576,4.18574 2.31203,0 4.18505,-1.87373 4.18505,-4.18574 0,-2.31203 -1.87302,-4.18716 -4.18505,-4.18716 m 0,-12.40326 c -2.31272,0 -4.18576,1.87511 -4.18576,4.18714 0,2.31132 1.87304,4.18577 4.18576,4.18577 2.31203,0 4.18505,-1.87445 4.18505,-4.18577 0,-2.31203 -1.87302,-4.18714 -4.18505,-4.18714 m 0,-12.40257 c -2.31272,0 -4.18576,1.87512 -4.18576,4.18715 0,2.31063 1.87304,4.18574 4.18576,4.18574 2.31203,0 4.18505,-1.87511 4.18505,-4.18574 0,-2.31203 -1.87302,-4.18715 -4.18505,-4.18715 m 12.404657,24.5069 c -2.47925,0 -4.484687,2.00822 -4.484687,4.48609 0,2.47576 2.005437,4.48537 4.484687,4.48537 2.47578,0 4.4847,-2.00961 4.4847,-4.48537 0,-2.47787 -2.00892,-4.48609 -4.4847,-4.48609 m 0,-12.40326 c -2.47925,0 -4.484687,2.00891 -4.484687,4.48607 0,2.47578 2.005437,4.48539 4.484687,4.48539 2.47578,0 4.4847,-2.00961 4.4847,-4.48539 0,-2.47716 -2.00892,-4.48607 -4.4847,-4.48607 m 0,-12.40328 c -2.47925,0 -4.484687,2.00961 -4.484687,4.48679 0,2.47577 2.005437,4.48469 4.484687,4.48469 2.47578,0 4.4847,-2.00892 4.4847,-4.48469 0,-2.47718 -2.00892,-4.48679 -4.4847,-4.48679 m 12.40117,24.50901 c -2.643,0 -4.7836,2.14129 -4.7836,4.78362 0,2.64091 2.1406,4.7836 4.7836,4.7836 2.64233,0 4.78362,-2.14269 4.78362,-4.7836 0,-2.64233 -2.14129,-4.78362 -4.78362,-4.78362 m 0,-12.40328 c -2.643,0 -4.7836,2.14132 -4.7836,4.78362 0,2.64093 2.1406,4.78432 4.7836,4.78432 2.64233,0 4.78362,-2.14339 4.78362,-4.78432 0,-2.6423 -2.14129,-4.78362 -4.78362,-4.78362 m 0,-12.40466 c -2.643,0 -4.7836,2.1427 -4.7836,4.78572 0,2.64092 2.1406,4.78431 4.7836,4.78431 2.64233,0 4.78362,-2.14339 4.78362,-4.78431 0,-2.64302 -2.14129,-4.78572 -4.78362,-4.78572 m 0,-12.40326 c -2.643,0 -4.7836,2.14339 -4.7836,4.78432 0,2.6423 2.1406,4.78362 4.7836,4.78362 2.64233,0 4.78362,-2.14132 4.78362,-4.78362 0,-2.64093 -2.14129,-4.78432 -4.78362,-4.78432 m 4.78362,-7.61896 c 0,2.64302 -2.14129,4.78433 -4.78362,4.78433 -2.643,0 -4.7836,-2.14131 -4.7836,-4.78433 0,-2.64091 2.1406,-4.7836 4.7836,-4.7836 2.64233,0 4.78362,2.14269 4.78362,4.7836"
         style="fill:#000000;fill-opacity:1;fill-rule:nonzero;stroke:none;stroke-width:0.69681269"
         id="path54"
         inkscape:connector-curvature="0" />
    </g>
  </g>
</svg>
