<svg xmlns="http://www.w3.org/2000/svg" xml:space="preserve" width="159.956" height="81.2" style="shape-rendering:geometricPrecision;text-rendering:geometricPrecision;image-rendering:optimizeQuality;fill-rule:evenodd;clip-rule:evenodd" viewBox="0 0 15.135 7.683"><defs><style type="text/css">.fil0{fill:#2b2a29;fill-rule:nonzero}</style></defs><g id="Layer_x0020_1"><g id="_211459864"><path id="_214047560" d="M14.498.183h.259v.05h-.1v.28H14.6v-.28h-.103z" class="fil0"/><path id="_214047488" d="M14.802.183h.08l.087.258h.002l.086-.258h.078v.33h-.053V.26h-.003l-.088.255h-.046l-.088-.255h-.001v.255h-.054z" class="fil0"/><path id="_214047416" d="M2.17 7.319a.13.13 0 0 0 .047.073.178.178 0 0 0 .097.022v-.065c-.032-.02-.048-.063-.048-.126v-.257c0-.104-.02-.18-.057-.226-.037-.044-.096-.067-.174-.07v.114c.083.001.126.059.126.173a.199.199 0 0 0-.077-.017c-.017 0-.033 0-.05.003v.098a.234.234 0 0 1 .056-.006c.013 0 .037.004.07.013v.174c-.036.055-.077.085-.125.091v.096a.205.205 0 0 0 .135-.09zm-.135.09a.325.325 0 0 1-.061.005.155.155 0 0 1-.121-.062.233.233 0 0 1-.051-.152.24.24 0 0 1 .08-.184.27.27 0 0 1 .153-.073v.098a.152.152 0 0 0-.075.043.155.155 0 0 0-.051.118c0 .075.036.111.11.111h.016v.096zm0-.625H2.03c-.067 0-.118.02-.154.063l-.045-.106a.238.238 0 0 1 .085-.05.275.275 0 0 1 .102-.022h.016v.115z" class="fil0"/><path id="_214047344" d="M2.888 7.4h.107V6.388h-.107v.333c-.032-.034-.08-.052-.14-.052h-.01v.112a.176.176 0 0 1 .04-.005c.046 0 .083.024.11.073v.398c-.006.015-.02.029-.044.04a.131.131 0 0 1-.061.02.224.224 0 0 1-.045-.005v.112a.199.199 0 0 0 .15-.067V7.4zm-.15.014h-.01a.212.212 0 0 1-.183-.098.417.417 0 0 1-.07-.257c0-.107.026-.199.08-.275.052-.073.113-.11.183-.115v.112a.162.162 0 0 0-.099.072.335.335 0 0 0-.052.195c0 .15.05.236.151.254v.112z" class="fil0"/><path id="_214047272" d="M3.602 7.4h.106V6.388h-.106v.333c-.034-.034-.08-.052-.142-.052h-.01v.112a.203.203 0 0 1 .04-.005c.046 0 .084.024.112.073v.398c-.007.015-.023.029-.045.04a.143.143 0 0 1-.06.02.213.213 0 0 1-.047-.005v.112a.2.2 0 0 0 .152-.067V7.4zm-.152.014h-.01a.212.212 0 0 1-.181-.098.416.416 0 0 1-.07-.257c0-.107.025-.199.08-.275.05-.073.112-.11.181-.115v.112a.17.17 0 0 0-.099.072.335.335 0 0 0-.051.195c0 .15.05.236.15.254v.112z" class="fil0"/><path id="_214047248" d="M4.044 6.41c.019 0 .033.008.046.025.013.014.019.032.019.055a.084.084 0 0 1-.02.056.056.056 0 0 1-.045.022.056.056 0 0 1-.047-.022c-.014-.015-.019-.034-.019-.056 0-.023.005-.041.018-.057.014-.015.028-.023.048-.023zm-.06.991V6.79h-.082v-.106h.191v.718h-.108z" class="fil0"/><path id="_214048176" d="M4.703 7.401v-.418c0-.076-.01-.13-.03-.16-.018-.032-.05-.047-.096-.047a.184.184 0 0 0-.136.09v.535h-.107v-.718h.072l.035.092a.18.18 0 0 1 .172-.106c.131 0 .197.096.197.287V7.4h-.107z" class="fil0"/><path id="_214048104" d="M5.236 7.57v.113h.003a.288.288 0 0 0 .188-.061.203.203 0 0 0 .073-.16c0-.06-.016-.107-.049-.14a.184.184 0 0 0-.137-.052.428.428 0 0 0-.077.01h-.001v.107a.34.34 0 0 1 .055-.008c.072 0 .106.028.106.087 0 .03-.013.054-.042.074a.185.185 0 0 1-.113.03h-.006zm0-.9v.102h.001c.035 0 .064.015.088.046.022.032.033.07.033.115a.227.227 0 0 1-.031.126.104.104 0 0 1-.09.048h-.001v.102l.027-.004a.208.208 0 0 0 .15-.084.295.295 0 0 0 .056-.183.3.3 0 0 0-.042-.165l.065-.058-.07-.08-.052.078a.196.196 0 0 0-.134-.044zm-.224.928.058-.102a.294.294 0 0 0 .166.074v.113a.351.351 0 0 1-.12-.026.368.368 0 0 1-.104-.059zm.224-.21-.01.001a.332.332 0 0 1-.073.01c-.085 0-.128-.037-.128-.113 0-.026.01-.046.03-.066a.18.18 0 0 1 .075-.041c-.084-.048-.127-.13-.127-.248 0-.074.022-.136.065-.188a.206.206 0 0 1 .163-.074h.005v.103a.107.107 0 0 0-.088.046.184.184 0 0 0-.035.115c0 .05.01.091.033.124.023.032.051.049.09.05v.102l-.06.008a.115.115 0 0 0-.043.014c-.017.008-.025.02-.025.033 0 .017.017.026.054.026a.36.36 0 0 0 .074-.01v.107z" class="fil0"/><path id="_214048032" d="M6.038 7.198v-.81h.106v.788c0 .038.01.07.028.09a.09.09 0 0 0 .072.034v.114c-.137 0-.206-.07-.206-.216z" class="fil0"/><path id="_214047960" d="M6.55 6.41c.02 0 .036.008.048.025.013.014.02.032.02.055a.084.084 0 0 1-.02.056.059.059 0 0 1-.048.022.058.058 0 0 1-.046-.022.083.083 0 0 1-.017-.056c0-.023.004-.041.017-.057a.06.06 0 0 1 .046-.023zm-.057.991V6.79H6.41v-.106h.19v.718h-.107z" class="fil0"/><path id="_214047888" d="M7.165 6.502a.155.155 0 0 0-.06-.013c-.033 0-.058.014-.08.044a.19.19 0 0 0-.033.112c0 .012.002.024.004.038h.122v.106h-.122v.612h-.107V6.79h-.087v-.106h.087a.37.37 0 0 1 .057-.216.173.173 0 0 1 .15-.079.27.27 0 0 1 .1.02l-.031.094z" class="fil0"/><path id="_214047816" d="M7.844 7.054a.392.392 0 0 0 .008-.078.328.328 0 0 0-.07-.22.25.25 0 0 0-.2-.087v.108l.004-.001c.051 0 .09.02.12.057a.192.192 0 0 1 .041.128h-.166v.093h.263zm-.263.252v.108c.053 0 .1-.01.14-.027a.204.204 0 0 0 .077-.051l-.046-.093a.2.2 0 0 1-.15.064l-.02-.001zm0-.252h-.169c0 .084.02.148.058.193.03.035.067.054.111.059v.108H7.58a.243.243 0 0 1-.192-.092.398.398 0 0 1-.088-.272c0-.119.03-.214.09-.285a.244.244 0 0 1 .191-.096v.108a.154.154 0 0 0-.115.054.212.212 0 0 0-.05.13h.165v.093z" class="fil0"/><path id="_214138632" d="M8.422 6.784h-.07v-.1h.07v-.152l.107-.049v.2h.164v.1H8.53v.357c0 .06.008.103.024.13a.1.1 0 0 0 .083.037.17.17 0 0 0 .084-.025l.016.112a.51.51 0 0 1-.145.02.15.15 0 0 1-.121-.063.262.262 0 0 1-.048-.16v-.407z" class="fil0"/><path id="_214138560" d="M9.145 6.67v.103c.105 0 .158.089.158.267 0 .083-.014.15-.042.197-.028.05-.067.073-.116.073v.104a.234.234 0 0 0 .198-.1.463.463 0 0 0 .073-.274.455.455 0 0 0-.072-.273.23.23 0 0 0-.2-.098zm-.273.37c0-.111.027-.2.077-.268a.23.23 0 0 1 .196-.103v.104c-.05 0-.088.024-.117.07a.378.378 0 0 0-.043.197c0 .18.053.27.16.27v.104a.234.234 0 0 1-.201-.1.478.478 0 0 1-.072-.274z" class="fil0"/><path id="_214138488" d="M10.176 7.523a.214.214 0 0 1-.086.114.253.253 0 0 1-.149.046v-.115a.188.188 0 0 0 .115-.037.114.114 0 0 0 .046-.09.407.407 0 0 0-.017-.116 3.99 3.99 0 0 0-.045-.144l-.163-.498h.11l.176.554.158-.554h.11l-.255.84z" class="fil0"/><path id="_214138416" d="M11.092 7.054a.392.392 0 0 0 .008-.078.328.328 0 0 0-.07-.22.254.254 0 0 0-.202-.087v.108l.005-.001c.051 0 .091.02.12.057a.201.201 0 0 1 .041.128h-.166v.093h.264zm-.264.252v.108c.051 0 .1-.01.14-.027a.21.21 0 0 0 .076-.051L11 7.243a.206.206 0 0 1-.153.064l-.02-.001zm0-.252h-.169c0 .084.02.148.058.193.03.035.067.054.111.059v.108h-.001a.243.243 0 0 1-.192-.092.398.398 0 0 1-.089-.272c0-.119.032-.214.09-.285a.245.245 0 0 1 .192-.096v.108a.155.155 0 0 0-.114.054.212.212 0 0 0-.052.13h.166v.093z" class="fil0"/><path id="_214138344" d="M11.623 7.319c.01.033.025.058.046.073a.178.178 0 0 0 .098.022v-.065c-.03-.02-.047-.063-.047-.126v-.257c0-.104-.02-.18-.06-.226-.037-.044-.094-.067-.173-.07v.114c.085.001.126.059.126.173a.197.197 0 0 0-.075-.017.3.3 0 0 0-.05.003v.098a.244.244 0 0 1 .055-.006c.013 0 .038.004.07.013v.174c-.036.055-.08.085-.126.091v.096a.205.205 0 0 0 .136-.09zm-.136.09a.298.298 0 0 1-.059.005.156.156 0 0 1-.123-.062.233.233 0 0 1-.05-.152.25.25 0 0 1 .078-.184.28.28 0 0 1 .154-.073v.098a.167.167 0 0 0-.075.043.157.157 0 0 0-.052.118c0 .075.038.111.111.111h.016v.096zm0-.625h-.003c-.067 0-.118.02-.153.063l-.045-.106a.217.217 0 0 1 .083-.05.276.276 0 0 1 .102-.022h.016v.115z" class="fil0"/><path id="_214138272" d="M12.288 6.805a.113.113 0 0 0-.071-.03c-.037 0-.07.022-.1.064a.27.27 0 0 0-.04.15v.412h-.108v-.718h.107v.114c.038-.085.097-.128.173-.128.019 0 .046.004.082.012l-.043.124z" class="fil0"/><path id="_214138200" d="m12.442 7.358.036-.121c.06.047.109.07.144.07.065 0 .099-.034.099-.1 0-.047-.032-.087-.096-.121a.949.949 0 0 1-.099-.062.274.274 0 0 1-.043-.046.213.213 0 0 1-.038-.121.18.18 0 0 1 .054-.138.197.197 0 0 1 .14-.05c.045 0 .1.016.166.05l-.03.118c-.043-.04-.086-.061-.128-.061a.096.096 0 0 0-.063.022.065.065 0 0 0-.026.055c0 .045.02.08.064.104l.077.04c.047.027.08.055.103.089.021.031.03.074.03.122 0 .065-.017.116-.055.152a.217.217 0 0 1-.157.054.302.302 0 0 1-.178-.056z" class="fil0"/><path id="_211459960" d="M10.653 4.78a2.265 2.265 0 0 1-.699-1.006l.782.35-.86-.624a2.913 2.913 0 0 1-.075-.623l1.308-.133-1.303-.138c.017-.233.065-.458.138-.671l.795-.57-.686.301C10.54.638 11.66-.068 12.843.018c1.284.091 1.469.507 1.456 1.409l-1.48-.008c-.649 0-1.193.514-1.236 1.224-.025 1.003.658 1.532 1.575 1.511v.007-.82c-.096-.006-.185-.024-.28-.024a.545.545 0 1 1 0-1.09c.26 0 .521 0 .783-.005.526-.01.954.356.927 1.045v1.94a5.65 5.65 0 0 1-1.913.296c.004 0-1.165-.004-2.022-.723z" style="fill:#e94d85;fill-rule:nonzero"/><path id="_211459792" d="m9.853 5.193-.08.034-.275-.613v-.649c.608-.012.403.786.355 1.228zm-.355.152v-.502l.274.385a6.654 6.654 0 0 1-.274.117zm0-3.912V.848L9.679.44c.197.227.272.547.208.97-.13.015-.26.022-.39.023zm0-.775.169-.233a.926.926 0 0 0-.17-.147v.38zm0 3.956-.276-.608c.041-.009.08-.016.12-.023a1.01 1.01 0 0 1 .156-.018v.65zm0-4.336v.38l-.557.765c-.152-.003-.305-.008-.458-.005L8.323 0c.34 0 .667.043.927.147.091.036.174.079.248.13zm0 .57-.262.585h.262V.848zm0 3.995-.568-.796a4.072 4.072 0 0 1-.412.022H8.49l-.147 1.434h.016a4 4 0 0 0 .88-.085c.127-.028.181-.043.258-.073v-.502zm-2.261.51v-.584l.598-.837c.107.05.225.088.353.11l.15 1.46c-.401 0-.77-.051-1.101-.15zm0-.855.331-.733a1.088 1.088 0 0 1-.23-.255l-.101.047v.94zm0-2.566.142.065c.057-.093.124-.178.199-.253l-.341-.76v.948zm0-1.21.593.83a.97.97 0 0 1 .353-.12L8.32 0a4.287 4.287 0 0 0-.88.095 2.453 2.453 0 0 0-.203.054v.573zm0-.573v.573l-.318-.44.318.703v.947l-1.441-.657 1.437 1.023c-.033.09-.057.183-.071.276l-1.853.172C5.33 1.62 6.16.491 7.237.149zm0 3.408v.94l-.336.736a2.752 2.752 0 0 1-.753-.476c-.56-.497-.84-1.151-.84-1.966v-.043l1.84.165c.007.104.025.203.053.296L5.714 4.26l1.523-.702zm0 1.212-.336.464c.109.046.22.085.336.12v-.584z" style="fill:#fbba18;fill-rule:nonzero"/><path id="_211459912" d="M0 4.054V.183h.918c1.224.015.807 1.492.917 1.909 1.055.02 1.227-.038 1.502.923V.183c1.86-.162 1.824.98 1.835 1.899v3.315h-.918c-.635-.015-.917-.337-.917-1.318v-.67H1.835v1.988H.873c-.582.034-.88-.544-.873-1.343z" style="fill:#0085cb;fill-rule:nonzero"/></g></g></svg>